PathFileType	4	(X/Y/Z)	/Users/itak/Documents/Research/Walk-IL/dataset/trc/00473_00167.trc
DataRate	CameraRate	NumFrames	NumMarkers	Units	OrigDataRate	OrigDataStartFrame	OrigNumFrames
100.000000	100.000000	4	53	mm	100.000000	503	575
Frame#	Time	RPSI			LPSI			L3			STRN			T10			C7			CLAV			RBAK			LBAK			LSHO			LUPA			LAEL			LAOL			LWTS			LWPS			LFRA			LIFD			LHPS			LHTS			RSHO			RUPA			RAEL			RAOL			RWTS			RWPS			RFRA			RIFD			RHTS			RHPS			RBHD			LFHD			RFHD			LBHD			LHIP			RHIP			RASI			LASI			LKNE			LTHI			LANK			LTIP			LTOE			LMT1			LMT5			LHEE			RKNE			RTHI			RANK			RTIP			RTOE			RMT1			RMT5			RHEE			
		X1	Y1	Z1	X2	Y2	Z2	X3	Y3	Z3	X4	Y4	Z4	X5	Y5	Z5	X6	Y6	Z6	X7	Y7	Z7	X8	Y8	Z8	X9	Y9	Z9	X10	Y10	Z10	X11	Y11	Z11	X12	Y12	Z12	X13	Y13	Z13	X14	Y14	Z14	X15	Y15	Z15	X16	Y16	Z16	X17	Y17	Z17	X18	Y18	Z18	X19	Y19	Z19	X20	Y20	Z20	X21	Y21	Z21	X22	Y22	Z22	X23	Y23	Z23	X24	Y24	Z24	X25	Y25	Z25	X26	Y26	Z26	X27	Y27	Z27	X28	Y28	Z28	X29	Y29	Z29	X30	Y30	Z30	X31	Y31	Z31	X32	Y32	Z32	X33	Y33	Z33	X34	Y34	Z34	X35	Y35	Z35	X36	Y36	Z36	X37	Y37	Z37	X38	Y38	Z38	X39	Y39	Z39	X40	Y40	Z40	X41	Y41	Z41	X42	Y42	Z42	X43	Y43	Z43	X44	Y44	Z44	X45	Y45	Z45	X46	Y46	Z46	X47	Y47	Z47	X48	Y48	Z48	X49	Y49	Z49	X50	Y50	Z50	X51	Y51	Z51	X52	Y52	Z52	X53	Y53	Z53	

504	5.03	-599.5402221679688	966.453857421875	-441.3153076171875	-622.7263793945312	964.5339965820312	-302.0480041503906	-619.9583740234375	1056.742431640625	-391.5592346191406	-884.7435302734375	1265.154541015625	-406.1638488769531	-600.1434936523438	1178.882690429688	-394.9615478515625	-652.506103515625	1449.244506835938	-420.9315185546875	-842.5616455078125	1376.385620117188	-402.7062377929688	-595.8767700195312	1324.485595703125	-508.381591796875	-621.7171630859375	1402.171142578125	-319.6189880371094	-722.2943725585938	1433.010620117188	-241.7364349365234	-716.0765991210938	1319.053833007812	-139.3328857421875	-746.0709228515625	1106.45849609375	-96.71813201904297	-672.0218505859375	1084.58984375	-165.6696472167969	-842.1240844726562	909.5396728515625	-128.033203125	-793.7528686523438	894.492919921875	-73.11346435546875	-772.8256225585938	1021.192138671875	-82.57248687744141	-859.8328857421875	753.7356567382812	-97.81992340087891	-806.8350830078125	819.972900390625	-65.49040985107422	-863.546142578125	827.4620361328125	-109.6111068725586	-720.9560546875	1420.603637695312	-576.65869140625	-703.5156860351562	1358.189819335938	-650.0885620117188	-719.7418823242188	1072.315551757812	-705.3941040039062	-670.8133544921875	1052.203735351562	-662.4303588867188	-839.6446533203125	875.18505859375	-658.82568359375	-775.6483764648438	855.4381103515625	-716.3689575195312	-727.759765625	1014.27734375	-714.6593017578125	-846.2919311523438	718.1307373046875	-659.8960571289062	-858.873046875	777.7575073242188	-664.9041137695312	-795.416259765625	770.1958618164062	-709.9631958007812	-795.777099609375	1632.546630859375	-517.3741455078125	-765.5640258789062	1696.828735351562	-323.0496826171875	-861.1920166015625	1693.594970703125	-412.6560974121094	-654.3486328125	1636.997192382812	-409.2286682128906	-767.9356079101562	864.2269287109375	-204.7180480957031	-693.249755859375	865.9578857421875	-596.6576538085938	-808.0170288085938	908.0299072265625	-549.6808471679688	-858.0174560546875	901.98388671875	-295.8142395019531	-759.59375	449.0670776367188	-215.9888610839844	-786.7880859375	600.70849609375	-205.1640625	-713.2310180664062	40.42354583740234	-198.0681457519531	-758.1134643554688	305.8975830078125	-193.9109649658203	-943.8306884765625	45.82836532592773	-274.5616149902344	-865.969482421875	51.05942535400391	-301.8891906738281	-866.7147216796875	45.95183944702148	-187.8183898925781	-665.5215454101562	45.05057525634766	-260.0584716796875	-737.80712890625	474.3044128417969	-569.89208984375	-735.474609375	733.3425903320312	-612.7153930664062	-695.3831787109375	48.43871688842773	-564.4780883789062	-742.2589111328125	328.4146728515625	-579.0396728515625	-912.0509643554688	46.45231628417969	-523.4692993164062	-847.1720581054688	47.62688446044922	-486.0759887695312	-829.606201171875	48.03415298461914	-591.6829833984375	-631.246337890625	39.6057243347168	-517.6265258789062	
505	5.04	-600.8340454101562	966.0308837890625	-439.6239013671875	-624.4365234375	963.8494873046875	-300.34228515625	-621.926513671875	1055.917358398438	-389.8580932617188	-886.3738403320312	1264.405517578125	-405.3032531738281	-602.37451171875	1177.987060546875	-392.8523254394531	-653.9736938476562	1448.69677734375	-419.023681640625	-844.1842041015625	1375.608520507812	-401.539794921875	-596.8980102539062	1323.718872070312	-506.1115417480469	-623.509521484375	1401.383422851562	-317.6935119628906	-724.291259765625	1431.983642578125	-240.0343780517578	-717.9425659179688	1317.914672851562	-137.6615600585938	-747.7274169921875	1105.477783203125	-94.50675964355469	-673.7185668945312	1083.369506835938	-163.4992980957031	-844.9825439453125	909.3980712890625	-125.8842926025391	-796.4773559570312	893.7882690429688	-71.23787689208984	-774.8795166015625	1020.310852050781	-80.45903015136719	-864.1300659179688	753.8529663085938	-95.84903717041016	-810.2312622070312	819.4456787109375	-63.64749526977539	-867.1422119140625	827.626953125	-107.398681640625	-721.6652221679688	1419.963989257812	-575.0845336914062	-703.6011352539062	1357.462646484375	-648.3963623046875	-719.1136474609375	1071.556030273438	-703.956787109375	-670.2785034179688	1051.539428710938	-660.8533935546875	-838.6517333984375	873.9747924804688	-657.2715454101562	-774.7306518554688	854.5118408203125	-714.98193359375	-727.0533447265625	1013.524475097656	-713.2534790039062	-843.622802734375	716.808349609375	-656.7192993164062	-856.8427734375	776.18115234375	-662.3330688476562	-793.6406860351562	768.9832153320312	-707.7660522460938	-797.1674194335938	1632.219970703125	-515.7837524414062	-767.1837768554688	1696.400390625	-321.4148559570312	-862.74267578125	1693.26806640625	-411.1087646484375	-655.9251708984375	1636.5615234375	-407.4645690917969	-769.7608642578125	863.5155639648438	-203.5393218994141	-693.9273071289062	865.7102661132812	-595.324462890625	-809.182373046875	907.6013793945312	-549.2000732421875	-859.569580078125	900.870849609375	-295.2452392578125	-759.4553833007812	448.5958251953125	-215.118896484375	-786.92822265625	600.0934448242188	-204.4416046142578	-713.2515869140625	40.31113433837891	-197.9285583496094	-758.1240234375	305.6959533691406	-193.2607879638672	-943.8562622070312	45.73303604125977	-274.6033020019531	-865.9494018554688	51.05502700805664	-301.8694763183594	-866.7203369140625	45.90444564819336	-187.7498016357422	-665.5045166015625	45.041015625	-259.9117431640625	-736.6710205078125	474.0556030273438	-569.333984375	-735.8112182617188	733.1863403320312	-611.9961547851562	-695.211669921875	48.06297302246094	-564.6065673828125	-741.632080078125	328.3014831542969	-578.7014770507812	-911.829345703125	46.46133041381836	-523.3045043945312	-846.9903564453125	47.52184677124023	-485.9854431152344	-829.5222778320312	48.12182998657227	-591.578125	-630.9931030273438	39.12200164794922	-517.8336181640625	
506	5.05	-601.9365844726562	965.4716186523438	-438.2268981933594	-625.7986450195312	963.1817016601562	-298.9003601074219	-623.6720581054688	1055.0205078125	-388.370361328125	-887.936767578125	1263.659301757812	-404.4614868164062	-604.495361328125	1177.16455078125	-390.7889099121094	-655.4476318359375	1448.183349609375	-417.1381225585938	-845.7425537109375	1374.834838867188	-400.36962890625	-597.8350219726562	1322.998046875	-503.8976745605469	-625.28125	1400.610107421875	-315.7631530761719	-726.278564453125	1430.8837890625	-238.2802429199219	-719.8384399414062	1316.590454101562	-136.0345306396484	-749.4902954101562	1104.360717773438	-92.30961608886719	-675.472412109375	1081.993896484375	-161.2969818115234	-847.8047485351562	909.1243896484375	-123.7779083251953	-799.2286376953125	892.9817504882812	-69.33990478515625	-777.0039672851562	1019.28173828125	-78.35413360595703	-868.5673828125	753.9627685546875	-93.79036712646484	-813.72607421875	818.864013671875	-61.71013259887695	-870.7909545898438	827.7612915039062	-105.142219543457	-722.4092407226562	1419.25634765625	-573.5667114257812	-703.7742309570312	1356.605102539062	-646.7379760742188	-718.556884765625	1070.740234375	-702.6671142578125	-669.7771606445312	1050.82080078125	-659.4544677734375	-837.5734252929688	872.7017211914062	-656.0219116210938	-773.69873046875	853.5877685546875	-713.885009765625	-726.3814697265625	1012.713012695312	-712.0185546875	-841.1773681640625	715.4784545898438	-654.4131469726562	-854.8863525390625	774.6386108398438	-660.454345703125	-791.897705078125	767.8408813476562	-706.1871337890625	-798.52783203125	1631.914306640625	-514.2728271484375	-768.8309326171875	1696.005615234375	-319.8558349609375	-864.3096313476562	1692.993530273438	-409.6743774414062	-657.4778442382812	1636.124633789062	-405.7334899902344	-771.4293212890625	863.0565795898438	-202.4719085693359	-694.702392578125	865.371826171875	-594.1490478515625	-810.304931640625	907.11669921875	-548.68798828125	-860.9175415039062	899.9964599609375	-294.6588134765625	-759.8816528320312	448.2477111816406	-214.3510894775391	-787.59521484375	599.634033203125	-203.8496246337891	-713.3290405273438	40.25616455078125	-197.8203125	-758.633056640625	305.480224609375	-192.7130432128906	-943.9446411132812	45.57669448852539	-274.7103881835938	-866.0003051757812	51.01420974731445	-301.8919372558594	-866.7777709960938	45.88059997558594	-187.7248840332031	-665.557373046875	45.0687255859375	-259.7792358398438	-735.7529907226562	473.7923889160156	-568.93798828125	-736.424560546875	733.044921875	-611.3799438476562	-695.01611328125	47.68500900268555	-564.8475341796875	-741.2186279296875	328.2033386230469	-578.4664306640625	-911.5458374023438	46.47320175170898	-523.0316772460938	-846.7445068359375	47.40981674194336	-485.8668212890625	-829.4512329101562	48.20465087890625	-591.45556640625	-630.70654296875	38.66265487670898	-518.2306518554688	
507	5.06	-602.881103515625	964.8929443359375	-437.131591796875	-626.8609619140625	962.6130981445312	-297.7385864257812	-625.17431640625	1054.15234375	-387.1058654785156	-889.4163818359375	1262.974853515625	-403.6377868652344	-606.4934692382812	1176.49609375	-388.7994079589844	-656.9190063476562	1447.759155273438	-415.2776794433594	-847.227294921875	1374.125610351562	-399.1993408203125	-598.689453125	1322.41357421875	-501.7522583007812	-627.0271606445312	1399.926635742188	-313.8348999023438	-728.247314453125	1429.806884765625	-236.4954376220703	-721.77392578125	1315.1962890625	-134.4630432128906	-751.4034423828125	1103.215087890625	-90.17564392089844	-677.3068237304688	1080.583374023438	-159.0954132080078	-850.5623168945312	908.767822265625	-121.7512817382812	-801.9852905273438	892.1602783203125	-67.44364929199219	-779.2214965820312	1018.204528808594	-76.29734039306641	-873.033447265625	754.0997314453125	-91.67375183105469	-817.265380859375	818.3018188476562	-59.69253921508789	-874.4176635742188	827.8982543945312	-102.8881607055664	-723.1951904296875	1418.562255859375	-572.1005859375	-704.0559692382812	1355.723022460938	-645.116943359375	-718.069091796875	1069.95556640625	-701.486328125	-669.3080444335938	1050.14599609375	-658.18798828125	-836.3754272460938	871.4404296875	-655.055908203125	-772.48193359375	852.7330322265625	-713.0267333984375	-725.7213745117188	1011.927429199219	-710.90869140625	-838.9784545898438	714.21240234375	-653.0599975585938	-853.0079956054688	773.2186889648438	-659.3060913085938	-790.1360473632812	766.8417358398438	-705.2163696289062	-799.853271484375	1631.654418945312	-512.837890625	-770.5427856445312	1695.669555664062	-318.3662109375	-865.9105834960938	1692.765258789062	-408.3622741699219	-659.0264282226562	1635.743286132812	-404.0216064453125	-772.936279296875	862.8309936523438	-201.5271148681641	-695.57958984375	865.0184326171875	-593.1408081054688	-811.3721923828125	906.6309814453125	-548.1331176757812	-862.0907592773438	899.3822021484375	-294.0567016601562	-760.7442016601562	448.0004272460938	-213.7019653320312	-788.7525024414062	599.2978515625	-203.4218444824219	-713.44873046875	40.25613784790039	-197.7485046386719	-759.4986572265625	305.2626953125	-192.2796325683594	-944.0751953125	45.37805938720703	-274.8756408691406	-866.1065673828125	50.94386672973633	-301.9523010253906	-866.8719482421875	45.88128280639648	-187.7447204589844	-665.6578369140625	45.12409210205078	-259.6768493652344	-734.9961547851562	473.5583190917969	-568.6671752929688	-737.2644653320312	732.9403686523438	-610.8720092773438	-694.8086547851562	47.33749008178711	-565.1365966796875	-740.9017944335938	328.1455383300781	-578.2948608398438	-911.2380981445312	46.49114608764648	-522.694091796875	-846.473876953125	47.29951095581055	-485.7323913574219	-829.3887329101562	48.27857208251953	-591.3265380859375	-630.4151611328125	38.25312805175781	-518.71630859375	
